<?xml version="1.0" encoding="UTF-8" standalone="no"?>
<!DOCTYPE svg PUBLIC "-//W3C//DTD SVG 1.1//EN"
 "http://www.w3.org/Graphics/SVG/1.1/DTD/svg11.dtd">
<!-- Generated by graphviz version 2.43.0 (0)
 -->
<!-- Title: Graphical Class Hierarchy Pages: 1 -->
<svg width="286pt" height="66pt"
 viewBox="0.00 0.00 286.00 66.00" xmlns="http://www.w3.org/2000/svg" xmlns:xlink="http://www.w3.org/1999/xlink">
<g id="graph0" class="graph" transform="scale(1 1) rotate(0) translate(4 62)">
<title>Graphical Class Hierarchy</title>
<!-- Node2 -->
<g id="node1" class="node">
<title>Node2</title>
<g id="a_node1"><a xlink:title=" ">
<polygon fill="none" stroke="#bfbfbf" points="0,-19.5 0,-38.5 111,-38.5 111,-19.5 0,-19.5"/>
<text text-anchor="middle" x="55.5" y="-26.5" font-family="Helvetica,sans-Serif" font-size="10.00">TopSecretPrototype</text>
</a>
</g>
</g>
<!-- Node0 -->
<g id="node2" class="node">
<title>Node0</title>
<g id="a_node2"><a xlink:href="classdoxysphinx_1_1rst_1_1Car.html" target="_top" xlink:title="A car.">
<polygon fill="none" stroke="black" points="155.5,-38.5 155.5,-57.5 269.5,-57.5 269.5,-38.5 155.5,-38.5"/>
<text text-anchor="middle" x="212.5" y="-45.5" font-family="Helvetica,sans-Serif" font-size="10.00">doxysphinx::rst::Car</text>
</a>
</g>
</g>
<!-- Node2&#45;&gt;Node0 -->
<g id="edge1" class="edge">
<title>Node2&#45;&gt;Node0</title>
<path fill="none" stroke="midnightblue" d="M121.36,-36.95C132.62,-38.33 144.24,-39.76 155.25,-41.1"/>
<polygon fill="midnightblue" stroke="midnightblue" points="121.5,-33.44 111.15,-35.7 120.65,-40.39 121.5,-33.44"/>
</g>
<!-- Node4 -->
<g id="node3" class="node">
<title>Node4</title>
<g id="a_node3"><a xlink:href="classdoxysphinx_1_1rst_1_1Engine.html" target="_top" xlink:title="An engine.">
<polygon fill="none" stroke="black" points="147,-0.5 147,-19.5 278,-19.5 278,-0.5 147,-0.5"/>
<text text-anchor="middle" x="212.5" y="-7.5" font-family="Helvetica,sans-Serif" font-size="10.00">doxysphinx::rst::Engine</text>
</a>
</g>
</g>
<!-- Node2&#45;&gt;Node4 -->
<g id="edge2" class="edge">
<title>Node2&#45;&gt;Node4</title>
<path fill="none" stroke="midnightblue" d="M121.08,-21.08C129.65,-20.03 138.43,-18.96 147,-17.91"/>
<polygon fill="midnightblue" stroke="midnightblue" points="120.65,-17.61 111.15,-22.3 121.5,-24.56 120.65,-17.61"/>
</g>
</g>
</svg>
