<?xml version="1.0" encoding="utf-8"?>
<svg width="32px" height="32px" viewBox="0 0 32 32" version="1.1" xmlns:xlink="http://www.w3.org/1999/xlink" xmlns="http://www.w3.org/2000/svg">
  <defs>
    <path d="M9.00011 11.0012L11.0001 11.0012L11.0001 18.0012C11.0001 18.0012 13.025 18.0247 13.0001 16.0012C12.9751 13.9776 13.0001 13.0012 13.0001 13.0012C13.0001 13.0012 18.0273 13.0061 18 10.0012C17.9727 6.99623 13.9911 1.78444 13.0001 1.00118C12.009 0.217919 10.6105 -0.0190871 9.00011 0.00118044L9.00011 0.00120143C7.38972 -0.0190661 5.99117 0.21794 5.00011 1.0012C4.00905 1.78446 0.0274087 6.99625 0.000110769 10.0012C-0.0271872 13.0062 5.00011 13.0012 5.00011 13.0012C5.00011 13.0012 5.02502 13.9776 5.00011 16.0012C4.9752 18.0247 7.0001 18.0012 7.0001 18.0012L7.0001 11.0012L9.00011 11.0012L9.00011 11.0012L9.00011 11.0012Z" id="path_1" />
    <rect width="32" height="32" id="artboard_1" />
    <clipPath id="clip_1">
      <use xlink:href="#artboard_1" clip-rule="evenodd" />
    </clipPath>
    <clipPath id="mask_1">
      <use xlink:href="#path_1" />
    </clipPath>
  </defs>
  <g id="doxysphinx_logo" clip-path="url(#clip_1)">
    <path d="M4.99999 30.9999L13 30.9999L13 19.9999C3.19575 19.9742 4.99999 30.9999 4.99999 30.9999ZM21 30.9999L13 30.9999L13 20C22.8042 19.9742 21 30.9999 21 30.9999Z" id="Body" fill="#B88C06" fill-rule="evenodd" stroke="none" />
    <g id="Right-Foot" transform="translate(16 26)">
      <path d="M5.001 0L1.999 0Q1.9008 0 1.80306 0.00962573Q1.70533 0.0192515 1.60901 0.0384102Q1.5127 0.057569 1.41872 0.0860763Q1.32474 0.114584 1.23402 0.152165Q1.14329 0.189746 1.05668 0.236039Q0.970069 0.282333 0.888415 0.336892Q0.806761 0.391452 0.730848 0.453752Q0.654935 0.516052 0.585494 0.585494Q0.516052 0.654935 0.453752 0.730848Q0.391452 0.806761 0.336892 0.888415Q0.282333 0.970069 0.236039 1.05668Q0.189746 1.14329 0.152165 1.23402Q0.114584 1.32474 0.0860763 1.41872Q0.057569 1.5127 0.0384102 1.60901Q0.0192515 1.70533 0.00962573 1.80306Q0 1.9008 0 1.999L0 5.001Q0 5.09939 0.0191955 5.19589Q0.038391 5.2924 0.0760443 5.3833Q0.113698 5.4742 0.168362 5.55601Q0.223026 5.63782 0.2926 5.7074Q0.362175 5.77697 0.443985 5.83164Q0.525796 5.8863 0.616699 5.92395Q0.707602 5.96161 0.804105 5.9808Q0.900607 6 0.999 6L7.001 6Q7.09939 6 7.19589 5.9808Q7.2924 5.96161 7.3833 5.92395Q7.4742 5.8863 7.55601 5.83164Q7.63782 5.77697 7.7074 5.7074Q7.77697 5.63782 7.83164 5.55601Q7.8863 5.4742 7.92395 5.3833Q7.96161 5.2924 7.9808 5.19589Q8 5.09939 8 5.001L8 2.999Q8 2.85167 7.98556 2.70505Q7.97112 2.55842 7.94237 2.41392Q7.91363 2.26942 7.87086 2.12844Q7.8281 1.98745 7.77171 1.85133Q7.71533 1.71522 7.64588 1.58528Q7.57643 1.45535 7.49458 1.33284Q7.41272 1.21034 7.31926 1.09645Q7.22579 0.982566 7.12161 0.878387Q7.01743 0.774208 6.90354 0.680742Q6.78966 0.587276 6.66715 0.505423Q6.54465 0.42357 6.41472 0.354118Q6.28478 0.284667 6.14867 0.228285Q6.01255 0.171904 5.87156 0.129136Q5.73058 0.0863679 5.58608 0.0576249Q5.44158 0.028882 5.29495 0.014441Q5.14833 0 5.001 0Z" id="Right-Foot" fill="#E7B626" fill-rule="evenodd" stroke="none" />
      <path d="M5 5L5 6" id="Claw-3" fill="none" fill-rule="evenodd" stroke="#CB9800" stroke-width="1" stroke-linecap="round" />
      <path d="M7 5L7 6" id="Claw-2" fill="none" fill-rule="evenodd" stroke="#CB9800" stroke-width="1" stroke-linecap="round" />
      <path d="M3 5L3 6" id="Claw-1" fill="none" fill-rule="evenodd" stroke="#CB9800" stroke-width="1" stroke-linecap="round" />
    </g>
    <g id="Left-Foot" transform="translate(2 26)">
      <path d="M2.999 0L6.001 0Q6.0992 0 6.19694 0.00962573Q6.29467 0.0192515 6.39099 0.0384102Q6.4873 0.057569 6.58128 0.0860763Q6.67525 0.114584 6.76598 0.152165Q6.85671 0.189746 6.94332 0.236039Q7.02993 0.282333 7.11158 0.336892Q7.19324 0.391452 7.26915 0.453752Q7.34507 0.516052 7.41451 0.585494Q7.48395 0.654935 7.54625 0.730848Q7.60855 0.806761 7.66311 0.888415Q7.71767 0.970069 7.76396 1.05668Q7.81025 1.14329 7.84783 1.23402Q7.88542 1.32474 7.91392 1.41872Q7.94243 1.5127 7.96159 1.60901Q7.98075 1.70533 7.99037 1.80306Q8 1.9008 8 1.999L8 5.001Q8 5.09939 7.9808 5.19589Q7.96161 5.2924 7.92395 5.3833Q7.8863 5.4742 7.83164 5.55601Q7.77697 5.63782 7.7074 5.7074Q7.63782 5.77697 7.55601 5.83164Q7.4742 5.8863 7.3833 5.92395Q7.2924 5.96161 7.19589 5.9808Q7.09939 6 7.001 6L0.999 6Q0.900607 6 0.804105 5.9808Q0.707602 5.96161 0.616699 5.92395Q0.525796 5.8863 0.443985 5.83164Q0.362175 5.77697 0.2926 5.7074Q0.223026 5.63782 0.168362 5.55601Q0.113698 5.4742 0.0760443 5.3833Q0.038391 5.2924 0.0191955 5.19589Q0 5.09939 0 5.001L0 2.999Q0 2.85167 0.014441 2.70505Q0.028882 2.55842 0.0576249 2.41392Q0.0863679 2.26942 0.129136 2.12844Q0.171904 1.98745 0.228285 1.85133Q0.284667 1.71522 0.354118 1.58528Q0.42357 1.45535 0.505423 1.33284Q0.587276 1.21034 0.680742 1.09645Q0.774208 0.982566 0.878387 0.878387Q0.982566 0.774208 1.09645 0.680742Q1.21034 0.587276 1.33284 0.505423Q1.45535 0.42357 1.58528 0.354118Q1.71522 0.284667 1.85133 0.228285Q1.98745 0.171904 2.12844 0.129136Q2.26942 0.0863679 2.41392 0.0576249Q2.55842 0.028882 2.70505 0.014441Q2.85167 0 2.999 0Z" id="Left-Foot" fill="#E7B626" fill-rule="evenodd" stroke="none" />
      <path d="M3 5L3 6" id="Claw-4" fill="none" fill-rule="evenodd" stroke="#CB9800" stroke-width="1" stroke-linecap="round" />
      <path d="M5 5L5 6" id="Claw-5" fill="none" fill-rule="evenodd" stroke="#CB9800" stroke-width="1" stroke-linecap="round" />
      <path d="M1 5L1 6" id="Claw-6" fill="none" fill-rule="evenodd" stroke="#CB9800" stroke-width="1" stroke-linecap="round" />
    </g>
    <g id="Hat-Mask" transform="translate(3.9999 9.9988)">
      <path d="M9.00011 11.0012L11.0001 11.0012L11.0001 18.0012C11.0001 18.0012 13.025 18.0247 13.0001 16.0012C12.9751 13.9776 13.0001 13.0012 13.0001 13.0012C13.0001 13.0012 18.0273 13.0061 18 10.0012C17.9727 6.99623 13.9911 1.78444 13.0001 1.00118C12.009 0.217919 10.6105 -0.0190871 9.00011 0.00118044L9.00011 0.00120143C7.38972 -0.0190661 5.99117 0.21794 5.00011 1.0012C4.00905 1.78446 0.0274087 6.99625 0.000110769 10.0012C-0.0271872 13.0062 5.00011 13.0012 5.00011 13.0012C5.00011 13.0012 5.02502 13.9776 5.00011 16.0012C4.9752 18.0247 7.0001 18.0012 7.0001 18.0012L7.0001 11.0012L9.00011 11.0012L9.00011 11.0012L9.00011 11.0012Z" id="Mask" fill="none" fill-rule="evenodd" stroke="#F5D168" stroke-width="1" />
      <g clip-path="url(#mask_1)">
        <g id="Hat" transform="translate(-1.1444092E-05 0)">
          <path d="M9.00011 11.0012L11.0001 11.0012L11.0001 18.0012C11.0001 18.0012 13.025 18.0247 13.0001 16.0012C12.9751 13.9776 13.0001 13.0012 13.0001 13.0012C13.0001 13.0012 18.0273 13.0061 18 10.0012C17.9727 6.99623 13.9911 1.78444 13.0001 1.00118C12.009 0.217919 10.6105 -0.0190871 9.00011 0.00118044L9.00011 0.00120143C7.38972 -0.0190661 5.99117 0.21794 5.00011 1.0012C4.00905 1.78446 0.0274087 6.99625 0.000110769 10.0012C-0.0271872 13.0062 5.00011 13.0012 5.00011 13.0012C5.00011 13.0012 5.02502 13.9776 5.00011 16.0012C4.9752 18.0247 7.0001 18.0012 7.0001 18.0012L7.0001 11.0012L9.00011 11.0012L9.00011 11.0012L9.00011 11.0012Z" id="Hat" fill="#D6A922" fill-rule="evenodd" stroke="#F5D168" stroke-width="0.5" />
          <g id="Lines" transform="translate(5.0001116 13.0012)">
            <path d="M6 1L8 1" id="Line-3" fill="none" fill-rule="evenodd" stroke="#F5D168" stroke-width="1" />
            <path d="M0 1L2 1" id="Line" fill="none" fill-rule="evenodd" stroke="#F5D168" stroke-width="1" />
            <path d="M6 3L8 3" id="Line-2" fill="none" fill-rule="evenodd" stroke="#F5D168" stroke-width="1" />
            <path d="M0 3L2 3" id="Line" fill="none" fill-rule="evenodd" stroke="#F5D168" stroke-width="1" />
          </g>
        </g>
      </g>
    </g>
    <path d="M14 15L15 8L11 8L12 15L14 15Z" id="Hat-Horn" fill="#A37B03" fill-rule="evenodd" stroke="none" />
    <path d="M9 15L17 15L17 18.501Q17 18.6729 16.9832 18.844Q16.9663 19.015 16.9328 19.1836Q16.8992 19.3522 16.8493 19.5167Q16.7994 19.6812 16.7337 19.84Q16.6679 19.9988 16.5868 20.1504Q16.5058 20.302 16.4103 20.4449Q16.3148 20.5879 16.2058 20.7207Q16.0967 20.8536 15.9752 20.9752Q15.8536 21.0967 15.7207 21.2058Q15.5879 21.3148 15.4449 21.4103Q15.302 21.5058 15.1504 21.5868Q14.9988 21.6679 14.84 21.7337Q14.6812 21.7994 14.5167 21.8493Q14.3522 21.8992 14.1836 21.9328Q14.015 21.9663 13.844 21.9832Q13.6729 22 13.501 22L12.499 22Q12.3271 22 12.156 21.9832Q11.985 21.9663 11.8164 21.9328Q11.6478 21.8992 11.4833 21.8493Q11.3188 21.7994 11.16 21.7337Q11.0012 21.6679 10.8496 21.5868Q10.698 21.5058 10.5551 21.4103Q10.4121 21.3148 10.2793 21.2058Q10.1464 21.0967 10.0248 20.9752Q9.90329 20.8536 9.79424 20.7207Q9.68519 20.5879 9.58969 20.4449Q9.49419 20.302 9.41316 20.1504Q9.33213 19.9988 9.26634 19.84Q9.20056 19.6812 9.15067 19.5167Q9.10077 19.3522 9.06723 19.1836Q9.0337 19.015 9.01685 18.844Q9 18.6729 9 18.501L9 15Z" id="Head" fill="#FFCC32" fill-rule="evenodd" stroke="none" />
    <g id="Speech-Bubble" transform="translate(18.693813 -0.113206625)">
      <path d="M0.157048 5.06415C0.0703126 2.58039 2.90838 0.465332 6.49604 0.340048C10.0837 0.214764 13.0624 2.12669 13.1491 4.61046C13.2359 7.09423 10.3978 9.20928 6.81014 9.33457C3.22247 9.45985 0.243783 7.54792 0.157048 5.06415Z" id="Ellipse" fill="#BEE5FF" fill-rule="evenodd" stroke="#A3DAFF" stroke-width="0.2" />
      <path d="M1.12749 4.14125C0.738565 3.40979 1.60921 2.18626 3.07212 1.40841C4.53504 0.630568 6.03625 0.592964 6.42517 1.32442C6.8141 2.05588 5.94345 3.27941 4.48054 4.05726C3.01762 4.8351 1.51641 4.87271 1.12749 4.14125Z" id="Ellipse-2" fill="#D7EFFF" fill-rule="evenodd" stroke="none" />
    </g>
    <g id="Speech-Bubble-2" transform="matrix(0.8660256 0.49999964 -0.49999964 0.8660256 20.453789 12.015978)">
      <path d="M0.0256459 0.808491C0.0114821 0.402891 0.474938 0.0575032 1.0608 0.0370443C1.64667 0.0165855 2.13309 0.328803 2.14725 0.734403C2.16142 1.14 1.69796 1.48539 1.1121 1.50585C0.52623 1.52631 0.0398097 1.21409 0.0256459 0.808491Z" id="Ellipse" fill="#BEE5FF" fill-rule="evenodd" stroke="#A3DAFF" stroke-width="0.2" />
      <path d="M0.200578 0.939099C0.11271 0.851231 0.183941 0.637537 0.359677 0.461802C0.535413 0.286066 0.749107 0.214835 0.836975 0.302703C0.924842 0.390571 0.853611 0.604264 0.677875 0.78C0.502139 0.955736 0.288446 1.02697 0.200578 0.939099Z" id="Ellipse-2" fill="#D7EFFF" fill-rule="evenodd" stroke="none" />
    </g>
    <g id="Speech-Bubble-3" transform="matrix(0.9781476 0.20791154 -0.20791154 0.9781476 20.913572 9.196023)">
      <path d="M0.0420721 1.35665C0.0188363 0.691269 0.779135 0.124659 1.74025 0.0910966C2.70136 0.0575339 3.49933 0.569727 3.52257 1.23511C3.5458 1.9005 2.7855 2.46711 1.82439 2.50067C0.86328 2.53423 0.0653078 2.02204 0.0420721 1.35665Z" id="Ellipse" fill="#BEE5FF" fill-rule="evenodd" stroke="#A3DAFF" stroke-width="0.2" />
      <path d="M0.302048 1.10941C0.197858 0.913462 0.431098 0.585685 0.823004 0.377306C1.21491 0.168926 1.61707 0.158852 1.72126 0.354805C1.82545 0.550757 1.59221 0.878534 1.20031 1.08691C0.808403 1.29529 0.406238 1.30537 0.302048 1.10941Z" id="Ellipse-2" fill="#D7EFFF" fill-rule="evenodd" stroke="none" />
    </g>
    <path d="M28.2125 4.68513L27.0131 4.769L26.9656 4.09028L28.165 4.00641L28.0805 2.79773L28.7592 2.75027L28.8437 3.95895L30.0431 3.87508L30.0906 4.5538L28.8912 4.63767L28.9746 5.83085L28.2959 5.87831L28.2125 4.68513ZM25.4782 4.87633L24.2788 4.9602L24.2313 4.28148L25.4307 4.19761L25.3462 2.98893L26.0249 2.94147L26.1094 4.15015L27.3088 4.06628L27.3563 4.745L26.1569 4.82887L26.2403 6.02205L25.5616 6.06951L25.4782 4.87633ZM23.2122 3.1257C22.8506 3.15098 22.5802 3.3064 22.4008 3.59197C22.2215 3.87753 22.1488 4.26308 22.1827 4.74862C22.2534 5.75895 22.6678 6.23761 23.4261 6.18458C23.7443 6.16233 24.1241 6.05584 24.5654 5.86511L24.6218 6.6709C24.2607 6.85186 23.8508 6.95838 23.3921 6.99045C22.733 7.03654 22.2149 6.8719 21.8378 6.49652C21.4607 6.12114 21.246 5.55949 21.1937 4.81155C21.1607 4.34048 21.2176 3.92178 21.3643 3.55545C21.511 3.18912 21.7384 2.90019 22.0465 2.68868C22.3545 2.47716 22.7245 2.35631 23.1563 2.32611C23.5964 2.29534 24.046 2.37082 24.5051 2.55257L24.2498 3.35524C24.0747 3.2865 23.8993 3.22818 23.7237 3.18025C23.548 3.13232 23.3775 3.11414 23.2122 3.1257L23.2122 3.1257Z" id="C++" fill="#0569AC" stroke="none" />
  </g>
</svg>
