<?xml version="1.0" encoding="utf-8"?>
<svg width="1731px" height="400px" viewBox="0 0 1731 400" version="1.1" xmlns:xlink="http://www.w3.org/1999/xlink" xmlns="http://www.w3.org/2000/svg">
  <defs>
    <linearGradient x1="0.12719297" y1="0.122807026" x2="0.8757309" y2="0.88011706" id="gradient_1">
      <stop offset="0%" stop-color="#B3E3FC" />
      <stop offset="100%" stop-color="#60B8E7" />
    </linearGradient>
    <path d="M70 20L70 19.999Q70 19.5081 69.9759 19.0177Q69.9518 18.5273 69.9037 18.0388Q69.8556 17.5502 69.7835 17.0645Q69.7115 16.5789 69.6157 16.0974Q69.5199 15.6159 69.4007 15.1396Q69.2814 14.6634 69.1388 14.1936Q68.9963 13.7238 68.8309 13.2615Q68.6655 12.7993 68.4777 12.3457Q68.2898 11.8921 68.0799 11.4483Q67.87 11.0045 67.6385 10.5715Q67.4071 10.1386 67.1547 9.71746Q66.9023 9.29636 66.6295 8.88815Q66.3568 8.47994 66.0643 8.08561Q65.7719 7.69128 65.4604 7.31177Q65.149 6.93226 64.8193 6.56849Q64.4896 6.20472 64.1424 5.85757Q63.7953 5.51042 63.4315 5.18072Q63.0677 4.85102 62.6882 4.53956Q62.3087 4.22811 61.9144 3.93565Q61.5201 3.64319 61.1118 3.37044Q60.7036 3.09768 60.2825 2.84529Q59.8614 2.59289 59.4285 2.36146Q58.9955 2.13003 58.5517 1.92012Q58.1079 1.71021 57.6543 1.52233Q57.2007 1.33446 56.7385 1.16906Q56.2762 1.00366 55.8064 0.86115Q55.3366 0.718635 54.8604 0.599345Q54.3841 0.480054 53.9026 0.384275Q53.4211 0.288496 52.9355 0.216459Q52.4498 0.144422 51.9613 0.0963006Q51.4727 0.0481793 50.9823 0.0240897Q50.4919 0 50.001 0L20.0006 0L19.999 0Q19.5081 0 19.0177 0.0240897Q18.5273 0.0481793 18.0388 0.0963006Q17.5502 0.144422 17.0645 0.216459Q16.5789 0.288496 16.0974 0.384275Q15.6159 0.480054 15.1396 0.599345Q14.6634 0.718635 14.1936 0.86115Q13.7238 1.00366 13.2615 1.16906Q12.7993 1.33446 12.3457 1.52233Q11.8921 1.71021 11.4483 1.92012Q11.0045 2.13003 10.5715 2.36146Q10.1386 2.59289 9.71746 2.84529Q9.29636 3.09768 8.88815 3.37044Q8.47994 3.64319 8.08561 3.93565Q7.69128 4.22811 7.31177 4.53956Q6.93226 4.85102 6.56849 5.18072Q6.20472 5.51042 5.85757 5.85757Q5.51042 6.20472 5.18072 6.56849Q4.85102 6.93226 4.53956 7.31177Q4.22811 7.69128 3.93565 8.08561Q3.64319 8.47994 3.37044 8.88815Q3.09768 9.29636 2.84529 9.71746Q2.59289 10.1386 2.36146 10.5715Q2.13003 11.0045 1.92012 11.4483Q1.71021 11.8921 1.52233 12.3457Q1.33446 12.7993 1.16906 13.2615Q1.00366 13.7238 0.86115 14.1936Q0.718635 14.6634 0.599345 15.1396Q0.480054 15.6159 0.384275 16.0974Q0.288496 16.5789 0.216459 17.0645Q0.144422 17.5502 0.0963006 18.0388Q0.0481793 18.5273 0.0240897 19.0177Q0 19.5081 0 19.999L0 25L0 30.001Q0 30.4919 0.0240897 30.9823Q0.0481793 31.4727 0.0963006 31.9612Q0.144422 32.4498 0.216459 32.9355Q0.288496 33.4211 0.384275 33.9026Q0.480054 34.3841 0.599345 34.8604Q0.718635 35.3366 0.86115 35.8064Q1.00366 36.2762 1.16906 36.7385Q1.33446 37.2007 1.52233 37.6543Q1.71021 38.1079 1.92012 38.5517Q2.13003 38.9955 2.36146 39.4285Q2.59289 39.8614 2.84529 40.2825Q3.09768 40.7036 3.37044 41.1118Q3.64319 41.52 3.93565 41.9144Q4.22811 42.3087 4.53956 42.6882Q4.85102 43.0677 5.18072 43.4315Q5.51042 43.7953 5.85757 44.1424Q6.20472 44.4896 6.56849 44.8193Q6.93226 45.149 7.31177 45.4604Q7.69128 45.7719 8.08561 46.0643Q8.47994 46.3568 8.88815 46.6296Q9.29636 46.9023 9.71746 47.1547Q10.1386 47.4071 10.5715 47.6385Q11.0045 47.87 11.4483 48.0799Q11.8921 48.2898 12.3457 48.4777Q12.7993 48.6655 13.2615 48.8309Q13.7238 48.9963 14.1936 49.1388Q14.6634 49.2814 15.1396 49.4007Q15.6159 49.5199 16.0974 49.6157Q16.5789 49.7115 17.0645 49.7835Q17.5502 49.8556 18.0388 49.9037Q18.5273 49.9518 19.0177 49.9759Q19.5081 50 19.999 50L20.0006 50" id="path_1" />
    <path d="M40 30L40 30.001Q40 30.4919 40.0241 30.9823Q40.0482 31.4727 40.0963 31.9612Q40.1444 32.4498 40.2165 32.9355Q40.2885 33.4211 40.3843 33.9026Q40.48 34.3841 40.5993 34.8604Q40.7186 35.3366 40.8611 35.8064Q41.0037 36.2762 41.1691 36.7385Q41.3344 37.2007 41.5223 37.6543Q41.7102 38.1079 41.9201 38.5517Q42.13 38.9955 42.3615 39.4285Q42.5929 39.8614 42.8453 40.2825Q43.0977 40.7036 43.3704 41.1118Q43.6432 41.52 43.9356 41.9144Q44.2281 42.3087 44.5396 42.6882Q44.851 43.0677 45.1807 43.4315Q45.5104 43.7953 45.8576 44.1424Q46.2047 44.4896 46.5685 44.8193Q46.9323 45.149 47.3118 45.4604Q47.6913 45.7719 48.0856 46.0643Q48.4799 46.3568 48.8881 46.6296Q49.2964 46.9023 49.7175 47.1547Q50.1386 47.4071 50.5715 47.6385Q51.0045 47.87 51.4483 48.0799Q51.8921 48.2898 52.3457 48.4777Q52.7993 48.6655 53.2615 48.8309Q53.7238 48.9963 54.1936 49.1388Q54.6634 49.2814 55.1396 49.4007Q55.6159 49.5199 56.0974 49.6157Q56.5789 49.7115 57.0645 49.7835Q57.5502 49.8556 58.0388 49.9037Q58.5273 49.9518 59.0177 49.9759Q59.5081 50 59.999 50L89.9994 50L90.001 50Q90.4919 50 90.9823 49.9759Q91.4727 49.9518 91.9612 49.9037Q92.4498 49.8556 92.9355 49.7835Q93.4211 49.7115 93.9026 49.6157Q94.3841 49.5199 94.8604 49.4007Q95.3366 49.2814 95.8064 49.1388Q96.2762 48.9963 96.7384 48.8309Q97.2007 48.6655 97.6543 48.4777Q98.1078 48.2898 98.5517 48.0799Q98.9955 47.87 99.4285 47.6385Q99.8614 47.4071 100.283 47.1547Q100.704 46.9023 101.112 46.6296Q101.52 46.3568 101.914 46.0643Q102.309 45.7719 102.688 45.4604Q103.068 45.149 103.432 44.8193Q103.795 44.4896 104.142 44.1424Q104.49 43.7953 104.819 43.4315Q105.149 43.0677 105.46 42.6882Q105.772 42.3087 106.064 41.9144Q106.357 41.52 106.63 41.1118Q106.902 40.7036 107.155 40.2825Q107.407 39.8614 107.639 39.4285Q107.87 38.9955 108.08 38.5517Q108.29 38.1079 108.478 37.6543Q108.666 37.2007 108.831 36.7385Q108.996 36.2762 109.139 35.8064Q109.281 35.3366 109.401 34.8604Q109.52 34.3841 109.616 33.9026Q109.711 33.4211 109.784 32.9355Q109.856 32.4498 109.904 31.9612Q109.952 31.4727 109.976 30.9823Q110 30.4919 110 30.001L110 25L110 19.999Q110 19.5081 109.976 19.0177Q109.952 18.5273 109.904 18.0388Q109.856 17.5502 109.784 17.0645Q109.711 16.5789 109.616 16.0974Q109.52 15.6159 109.401 15.1396Q109.281 14.6634 109.139 14.1936Q108.996 13.7238 108.831 13.2615Q108.666 12.7993 108.478 12.3457Q108.29 11.8921 108.08 11.4483Q107.87 11.0045 107.639 10.5715Q107.407 10.1386 107.155 9.71746Q106.902 9.29636 106.63 8.88815Q106.357 8.47994 106.064 8.08561Q105.772 7.69128 105.46 7.31177Q105.149 6.93226 104.819 6.56849Q104.49 6.20472 104.142 5.85757Q103.795 5.51042 103.431 5.18072Q103.068 4.85102 102.688 4.53956Q102.309 4.22811 101.914 3.93565Q101.52 3.64319 101.112 3.37044Q100.704 3.09768 100.283 2.84529Q99.8614 2.59289 99.4285 2.36146Q98.9955 2.13003 98.5517 1.92012Q98.1078 1.71021 97.6543 1.52233Q97.2007 1.33446 96.7384 1.16906Q96.2762 1.00366 95.8064 0.86115Q95.3366 0.718635 94.8604 0.599345Q94.3841 0.480054 93.9026 0.384275Q93.4211 0.288496 92.9355 0.216459Q92.4498 0.144422 91.9612 0.0963006Q91.4727 0.0481793 90.9823 0.0240897Q90.4919 0 90.001 0L89.9994 0" id="path_2" />
    <rect width="1731" height="399.99997" id="artboard_1" />
    <clipPath id="clip_1">
      <use xlink:href="#artboard_1" clip-rule="evenodd" />
    </clipPath>
  </defs>
  <g id="Text-Variant-1---Open-Sans" clip-path="url(#clip_1)">
    <g id="Logo" transform="translate(193 -4)">
      <g id="d--xysphinx" fill="#1E4052">
        <path d="M81.5625 142.984Q98.1562 142.984 110.25 149.031Q122.344 155.078 131.906 169.703L132.75 169.703Q131.906 151.984 131.906 134.969L131.906 79.9844L145.688 79.9844L145.688 298.797L136.547 298.797L133.031 275.453L131.906 275.453Q114.469 301.609 81.8438 301.609Q50.2031 301.609 33.4688 281.922Q16.7344 262.234 16.7344 224.547Q16.7344 184.891 33.3281 163.938Q49.9219 142.984 81.5625 142.984ZM962.438 298.797L962.438 199.656Q962.438 176.594 952.734 166.117Q943.031 155.641 922.641 155.641Q895.219 155.641 882.492 169.492Q869.766 183.344 869.766 214.422L869.766 298.797L855.844 298.797L855.844 79.9844L869.766 79.9844L869.766 149.594L869.063 169.141L870.047 169.141Q878.625 155.359 891.703 149.172Q904.781 142.984 924.188 142.984Q976.219 142.984 976.219 198.813L976.219 298.797L962.438 298.797ZM1018.21 89.9688Q1009.35 89.9688 1009.35 103.469Q1009.35 117.109 1018.21 117.109Q1022.57 117.109 1025.03 113.453Q1027.49 109.797 1027.49 103.469Q1027.49 97 1025.03 93.4844Q1022.57 89.9688 1018.21 89.9688ZM673.847 259Q673.847 279.531 658.237 290.57Q642.628 301.609 613.941 301.609Q583.284 301.609 565.284 292.188L565.284 277.141Q588.347 288.672 613.941 288.672Q636.581 288.672 648.323 281.148Q660.066 273.625 660.066 261.109Q660.066 249.578 650.714 241.703Q641.362 233.828 619.987 226.234Q597.066 217.938 587.784 211.961Q578.503 205.984 573.792 198.461Q569.081 190.938 569.081 180.109Q569.081 162.953 583.495 152.969Q597.909 142.984 623.784 142.984Q648.534 142.984 670.753 152.266L665.55 164.922Q643.05 155.641 623.784 155.641Q605.081 155.641 594.112 161.828Q583.144 168.016 583.144 178.984Q583.144 190.938 591.652 198.109Q600.159 205.281 624.909 214.141Q645.581 221.594 655.003 227.57Q664.425 233.547 669.136 241.141Q673.847 248.734 673.847 259ZM712.744 275.172Q728.916 301.609 764.212 301.609Q793.744 301.609 810.83 280.867Q827.916 260.125 827.916 222.438Q827.916 183.625 811.673 163.305Q795.431 142.984 764.494 142.984Q729.9 142.984 714.15 167.734L713.306 167.734L710.634 145.938L698.822 145.938L698.822 367.984L712.744 367.984L712.744 309.766Q712.744 297.391 712.181 286.984L711.759 275.172L712.744 275.172ZM1168.62 298.797L1168.62 199.656Q1168.62 176.594 1158.92 166.117Q1149.22 155.641 1128.82 155.641Q1101.4 155.641 1088.68 169.492Q1075.95 183.344 1075.95 214.422L1075.95 298.797L1062.03 298.797L1062.03 145.938L1073.84 145.938L1076.51 166.891L1077.36 166.891Q1092.26 142.984 1130.37 142.984Q1182.4 142.984 1182.4 198.813L1182.4 298.797L1168.62 298.797ZM369.788 220.188L316.491 145.938L332.522 145.938L378.084 210.344L423.225 145.938L450.028 145.938L482.372 231.719Q497.138 271.234 501.075 285.016L501.919 285.016Q507.825 266.875 521.184 230.875L553.528 145.938L567.872 145.938L499.388 323.547Q491.091 345.203 485.466 352.797Q479.841 360.391 472.317 364.188Q464.794 367.984 454.106 367.984Q446.091 367.984 436.247 365.031L436.247 352.938Q444.403 355.188 453.825 355.188Q460.997 355.188 466.481 351.813Q471.966 348.438 476.395 341.336Q480.825 334.234 486.661 318.836Q492.497 303.438 494.184 298.797L436.692 148.571L386.1 220.188L442.35 298.797L426.178 298.797L378.084 230.594L329.709 298.797L314.381 298.797L369.788 220.188ZM1011.32 298.797L1025.24 298.797L1025.24 145.938L1011.32 145.938L1011.32 298.797ZM1201.75 145.938L1255.05 220.188L1199.64 298.797L1214.97 298.797L1263.35 230.594L1311.44 298.797L1327.61 298.797L1271.36 220.188L1323.82 145.938L1308.49 145.938L1263.35 210.344L1217.78 145.938L1201.75 145.938ZM81.5625 155.641Q56.5312 155.641 43.9453 173.219Q31.3594 190.797 31.3594 224.266Q31.3594 289.234 81.8438 289.234Q107.719 289.234 119.813 274.188Q131.906 259.141 131.906 224.547L131.906 222.156Q131.906 186.719 120.023 171.18Q108.141 155.641 81.5625 155.641ZM800.283 271.797Q787.416 289.234 763.931 289.234Q736.791 289.234 724.767 273.906Q712.744 258.578 712.744 222.719L712.744 218.219Q712.744 185.031 725.259 170.336Q737.775 155.641 764.494 155.641Q813.15 155.641 813.15 223Q813.15 254.359 800.283 271.797Z" />
      </g>
      <g id="Icon-Colored" transform="translate(162 142)">
        <path d="M0 80C0 35.8172 35.8172 0 80 0C124.183 0 160 35.8172 160 80C160 124.183 124.183 160 80 160C35.8172 160 0 124.183 0 80Z" id="Background" fill="url(#gradient_1)" fill-rule="evenodd" stroke="none" />
        <g id="Link" transform="translate(25 55)">
          <g id="Link">
            <g id="Left-Link-Segment">
              <use xlink:href="#path_1" fill="none" stroke="#AFE1FB" stroke-width="20" stroke-linecap="round" stroke-linejoin="round" />
              <use xlink:href="#path_1" fill="none" stroke="#1E4052" stroke-width="10" stroke-linecap="round" stroke-linejoin="round" />
            </g>
            <g id="Right-Link-Segment">
              <use xlink:href="#path_2" fill="none" stroke="#AFE1FB" stroke-width="20" stroke-linecap="round" stroke-linejoin="round" />
              <use xlink:href="#path_2" fill="none" stroke="#1E4052" stroke-width="10" stroke-linecap="round" stroke-linejoin="round" />
            </g>
          </g>
        </g>
      </g>
    </g>
  </g>
</svg>
